<?xml version="1.0" encoding="utf-8"?>
<svg width="39px" height="36px" viewBox="0 0 39 36" version="1.1" xmlns:xlink="http://www.w3.org/1999/xlink" xmlns="http://www.w3.org/2000/svg">
  <g id="👋" fill="#FFFFFF">
    <path d="M31.1133 8.49316Q31.9922 8.49316 32.7612 8.82275Q33.5303 9.15234 34.1016 9.72363Q34.6729 10.2949 35.0024 11.064Q35.332 11.833 35.332 12.7119L35.332 24.8115Q35.332 26.1885 34.9731 27.4702Q34.6143 28.752 33.9624 29.8652Q33.3105 30.9785 32.4023 31.8867Q31.4941 32.7949 30.3809 33.4468Q29.2676 34.0986 27.9858 34.4575Q26.7041 34.8164 25.3271 34.8164Q24.4189 34.8164 23.5327 34.6553Q22.6465 34.4941 21.7969 34.1865Q20.9473 33.8789 20.1709 33.4102Q19.3945 32.9414 18.7354 32.3262Q17.7393 31.4033 16.7944 30.4731Q15.8496 29.543 14.8828 28.6055Q15.3369 29.2939 15.3369 30.085Q15.3369 30.627 15.1318 31.103Q14.9268 31.5791 14.5679 31.938Q14.209 32.2969 13.7256 32.502Q13.2422 32.707 12.7002 32.707Q10.8545 32.707 9.22119 32.0039Q7.58789 31.3008 6.37207 30.085Q5.15625 28.8691 4.45313 27.2358Q3.75 25.6025 3.75 23.7568Q3.75 23.2148 3.95508 22.7388Q4.16016 22.2627 4.51904 21.9038Q4.87793 21.5449 5.36133 21.3398Q5.84473 21.1348 6.38672 21.1348Q6.87012 21.1348 7.30957 21.3105Q6.69434 20.7686 6.3501 20.0435Q6.00586 19.3184 6.00586 18.4834Q6.00586 17.8682 6.18896 17.2969Q6.37207 16.7256 6.75293 16.2568Q6.32812 15.6416 6.09375 15.0044Q5.85937 14.3672 5.85938 13.6201Q5.85938 12.917 6.09375 12.2651Q6.32812 11.6133 6.73828 11.0786Q7.14844 10.5439 7.71973 10.1484Q8.29102 9.75293 8.96484 9.57715Q9.14063 8.88867 9.53613 8.31006Q9.93164 7.73145 10.4736 7.32129Q11.0156 6.91113 11.6748 6.68408Q12.334 6.45703 13.0371 6.45703Q13.6377 6.45703 14.165 6.60352Q14.8389 5.8125 15.6445 5.3877Q16.4502 4.96289 17.5049 4.96289Q18.1348 4.96289 18.7427 5.15332Q19.3506 5.34375 19.8633 5.69531L20.083 5.34375Q19.834 5.00684 19.6875 4.59668Q19.541 4.18652 19.541 3.76172Q19.541 3.21973 19.7461 2.73633Q19.9512 2.25293 20.3101 1.89404Q20.6689 1.53516 21.145 1.33008Q21.6211 1.125 22.1777 1.125Q23.8037 1.125 25.2759 1.68164Q26.748 2.23828 27.9199 3.22705Q29.0918 4.21582 29.8901 5.56348Q30.6885 6.91113 30.9814 8.50781Q31.0107 8.50781 31.0474 8.50049Q31.084 8.49317 31.1133 8.49316ZM33.2227 24.8115L33.2227 12.7119Q33.2227 12.2725 33.0615 11.8916Q32.9004 11.5107 32.6147 11.2251Q32.3291 10.9395 31.9482 10.771Q31.5674 10.6025 31.1279 10.6025Q30.6885 10.6025 30.3003 10.771Q29.9121 10.9395 29.6265 11.2251Q29.3408 11.5107 29.1797 11.8916Q29.0186 12.2725 29.0186 12.7119L29.0186 17.707L26.2207 20.4463Q25.5469 21.1055 25.188 21.9844Q24.8291 22.8633 24.8291 23.8008Q24.8291 24.6211 25.0708 25.251Q25.3125 25.8809 25.6055 26.335Q25.8984 26.7891 26.1401 27.082Q26.3818 27.375 26.3818 27.5215Q26.3818 27.7266 26.2207 27.8877Q26.0596 28.0488 25.8545 28.0488Q25.7227 28.0488 25.6494 28.0049Q25.5762 27.9609 25.4883 27.8877Q25.0928 27.5508 24.7778 27.0601Q24.4629 26.5693 24.2432 26.0127Q24.0234 25.4561 23.9063 24.8774Q23.7891 24.2988 23.7891 23.7861Q23.7891 22.6436 24.2212 21.5669Q24.6533 20.4902 25.4883 19.6992L28.2861 17.0039L18.999 7.6875Q18.7061 7.39453 18.3179 7.2334Q17.9297 7.07227 17.5049 7.07227Q16.7578 7.07227 16.2158 7.50439Q15.6738 7.93653 15.4688 8.63965L22.3535 15.5098Q22.5146 15.6709 22.5146 15.8906Q22.5146 16.1104 22.3535 16.2568Q22.1924 16.4033 21.9727 16.4033Q21.7529 16.4033 21.6064 16.2568L14.5313 9.18164Q14.2383 8.88867 13.8501 8.72754Q13.4619 8.56641 13.0371 8.56641Q12.3047 8.56641 11.7627 8.99854Q11.2207 9.43067 11.0156 10.1191L19.3652 18.4834Q19.5264 18.6445 19.5264 18.8643Q19.5264 19.0693 19.3652 19.2305Q19.2041 19.3916 18.999 19.3916Q18.7793 19.3916 18.6182 19.2305L11.543 12.1553Q11.25 11.8623 10.8691 11.7085Q10.4883 11.5547 10.0781 11.5547Q9.3457 11.5547 8.78174 11.9795Q8.21777 12.4043 8.02734 13.1074L16.3916 21.457Q16.5527 21.6182 16.5527 21.8379Q16.5527 22.043 16.3843 22.2041Q16.2158 22.3652 16.0107 22.3652Q15.8057 22.3652 15.6445 22.2041L10.8105 17.3701Q10.5908 17.1504 10.2905 17.0332Q9.99023 16.916 9.68262 16.916Q9.36035 16.916 9.07471 17.0405Q8.78906 17.165 8.56934 17.3774Q8.34961 17.5898 8.2251 17.8755Q8.10059 18.1611 8.10059 18.4834Q8.10059 19.1279 8.56934 19.5967L20.127 30.7441Q20.625 31.2275 21.2476 31.5938Q21.8701 31.96 22.5439 32.209Q23.2178 32.458 23.9282 32.5825Q24.6387 32.707 25.3271 32.707Q26.9678 32.707 28.4033 32.0845Q29.8389 31.4619 30.9082 30.3926Q31.9775 29.3232 32.6001 27.8877Q33.2227 26.4521 33.2227 24.8115ZM12.7002 30.6123Q12.9053 30.6123 13.0664 30.4512Q13.2275 30.29 13.2275 30.085Q13.2275 29.8652 13.0737 29.7114Q12.9199 29.5576 12.7002 29.5576Q11.499 29.5576 10.4443 29.1035Q9.38965 28.6494 8.60596 27.8584Q7.82227 27.0674 7.36816 26.0127Q6.91406 24.958 6.91406 23.7568Q6.91406 23.5371 6.76025 23.3833Q6.60645 23.2295 6.38672 23.2295Q6.16699 23.2295 6.01318 23.3833Q5.85938 23.5371 5.85938 23.7568Q5.85938 25.1777 6.39404 26.4229Q6.92871 27.668 7.85889 28.5981Q8.78906 29.5283 10.0342 30.0703Q11.2793 30.6123 12.7002 30.6123ZM22.1777 3.23438Q21.958 3.23438 21.8042 3.38818Q21.6504 3.542 21.6504 3.76172Q21.6504 3.98145 21.8042 4.13525Q21.958 4.28907 22.1777 4.28906Q23.3789 4.28907 24.4336 4.74316Q25.4883 5.19727 26.272 5.98096Q27.0557 6.76465 27.5098 7.81934Q27.9639 8.87402 27.9639 10.0752Q27.9639 10.2949 28.1177 10.4487Q28.2715 10.6025 28.4912 10.6025Q28.7109 10.6025 28.8647 10.4487Q29.0186 10.2949 29.0186 10.0752Q29.0186 8.66895 28.4766 7.42383Q27.9346 6.17871 27.0044 5.24854Q26.0742 4.31836 24.8291 3.77637Q23.584 3.23438 22.1777 3.23438ZM12.7002 27.4482Q12.9199 27.4482 13.0737 27.2944Q13.2275 27.1406 13.2275 26.9209Q13.2275 26.7012 13.0737 26.5474Q12.9199 26.3936 12.7002 26.3936Q12.1436 26.3936 11.6675 26.1885Q11.1914 25.9834 10.8325 25.6245Q10.4736 25.2656 10.2686 24.7896Q10.0635 24.3135 10.0635 23.7568Q10.0635 23.5371 9.90967 23.3833Q9.75586 23.2295 9.53613 23.2295Q9.31641 23.2295 9.1626 23.3833Q9.00879 23.5371 9.00879 23.7568Q9.00879 24.5186 9.30176 25.1924Q9.59473 25.8662 10.0928 26.3643Q10.5908 26.8623 11.2646 27.1553Q11.9385 27.4482 12.7002 27.4482ZM22.1777 6.38379Q21.958 6.38379 21.8042 6.5376Q21.6504 6.69141 21.6504 6.91113Q21.6504 7.13086 21.8042 7.28467Q21.958 7.43848 22.1777 7.43848Q22.7197 7.43848 23.1958 7.64355Q23.6719 7.84863 24.0308 8.20752Q24.3896 8.56641 24.5947 9.0498Q24.7998 9.5332 24.7998 10.0752Q24.7998 10.2803 24.9609 10.4414Q25.1221 10.6025 25.3271 10.6025Q25.5469 10.6025 25.7007 10.4487Q25.8545 10.2949 25.8545 10.0752Q25.8545 9.31348 25.5615 8.64697Q25.2686 7.98047 24.7705 7.4751Q24.2725 6.96973 23.606 6.67676Q22.9394 6.38379 22.1777 6.38379Z" />
  </g>
</svg>