<?xml version="1.0" encoding="UTF-8"?>
<svg width="303px" height="47px" viewBox="0 0 303 47" version="1.1" xmlns="http://www.w3.org/2000/svg" xmlns:xlink="http://www.w3.org/1999/xlink">
    <title>Logo</title>
    <g id="🎨-Design-V2-met-copy" stroke="none" stroke-width="1" fill="none" fill-rule="evenodd">
        <g id="Home" transform="translate(-449.000000, -369.000000)" fill="#FFFFFF" fill-rule="nonzero">
            <g id="Logo" transform="translate(449.000000, 369.000000)">
                <path d="M13.0502376,45.7556008 L13.0502376,44.9898167 C9.09368635,44.9898167 5.55193483,39.7888663 5.55193483,34.8431772 C5.55193483,33.7583164 5.74338086,32.6734555 6.12627291,31.65241 L23.9307536,31.65241 L23.9307536,31.4928717 L29.5784114,45.7556008 L36.9809912,45.7556008 L18.8893415,0 L11.7739308,0 L11.7739308,0.765784114 L14.3903598,7.40257977 L0,45.7556008 L13.0502376,45.7556008 Z M23.6754922,30.8866259 L6.41344196,30.8866259 L14.8051595,8.4874406 L23.6754922,30.8866259 Z M48.8506449,45.7236931 L48.8506449,26.5152749 L51.7223354,19.9742023 C52.5200272,18.1235574 54.5302105,16.2410048 57.6571623,16.2410048 C61.9646979,16.2410048 65.6021724,20.0699253 65.6021724,27.0577054 L65.6021724,45.7236931 L71.7284453,45.7236931 L71.7284453,27.0577054 C71.7284453,17.4215886 66.8784793,12.9226069 60.7202987,12.9226069 C56.8594705,12.9226069 53.2858113,14.5179905 51.1479973,19.3998642 L48.8506449,24.568907 L48.8506449,17.4854039 C48.8506449,14.9008826 47.7019688,13.688391 44.957909,13.688391 L39.6931432,13.688391 L39.6931432,14.4541752 L42.7562797,16.7515275 L42.7562797,45.7236931 L48.8506449,45.7236931 Z M84.3638832,45.7236931 L84.3638832,26.5152749 L87.2355737,19.9742023 C88.0332654,18.1235574 90.0434487,16.2410048 93.1704005,16.2410048 C97.4779362,16.2410048 101.115411,20.0699253 101.115411,27.0577054 L101.115411,45.7236931 L107.241684,45.7236931 L107.241684,27.0577054 C107.241684,17.4215886 102.391718,12.9226069 96.233537,12.9226069 C92.3727088,12.9226069 88.7990496,14.5179905 86.6612356,19.3998642 L84.3638832,24.568907 L84.3638832,17.4854039 C84.3638832,14.9008826 83.2152071,13.688391 80.4711473,13.688391 L75.2063815,13.688391 L75.2063815,14.4541752 L78.269518,16.7515275 L78.269518,45.7236931 L84.3638832,45.7236931 Z M121.568228,46.904277 C126.131025,46.904277 129.640869,43.8730482 132.353021,39.9803123 L133.629328,38.161575 L138.479294,45.7556008 L139.245078,45.7556008 L139.372709,26.898167 C139.372709,16.2410048 134.299389,13.3693143 126.06721,13.3693143 C121.089613,13.3693143 114.899525,14.1350984 114.899525,14.1350984 L121.376782,27.089613 C115.314325,27.5363204 111.13442,30.9185336 111.13442,37.1405295 C111.13442,44.0325866 116.080109,46.904277 121.568228,46.904277 Z M133.278344,27.0577054 L122.142566,27.0577054 L122.142566,25.3346911 C122.142566,17.9321113 124.025119,14.2946368 127.534963,14.2946368 C130.470468,14.2946368 133.278344,18.1873727 133.278344,27.0577054 Z M123.546504,44.7983707 C119.813306,44.7983707 117.547862,42.2138493 117.547862,36.3109301 C117.547862,31.1418873 120.419552,27.7915818 124.599457,27.7915818 L133.278344,27.7915818 L133.278344,37.5872369 L131.523422,39.9164969 C129.545146,42.5648337 126.769179,44.7983707 123.546504,44.7983707 Z M188.701969,45.7556008 L188.701969,44.9898167 L183.788187,32.0353021 L183.054311,32.0353021 L183.054311,33.790224 C183.054311,39.7888663 180.182621,44.9898167 175.332654,44.9898167 L165.728445,44.9898167 L165.728445,0 L155.80516,0 L155.80516,0.765784114 L158.868296,3.06313646 L158.868296,45.7556008 L188.701969,45.7556008 Z M206.861688,47 C212.413623,47 216.880697,44.7345553 219.018511,39.8526816 L218.539896,39.5336049 C217.072143,42.0224033 214.040914,43.8411405 209.637656,43.8411405 C205.617289,43.8411405 202.011722,42.0543109 199.682462,38.5763747 L218.731342,22.9097081 C218.731342,18.0916497 213.307038,13.4650373 205.649197,13.4650373 C196.97031,13.4650373 190.078253,18.4745418 190.078253,30.0889341 C190.078253,40.3632043 197.736094,47 206.861688,47 Z M199.171939,37.778683 C197.672279,35.1622539 196.778864,31.6843177 196.778864,27.3767821 C196.778864,19.1446029 199.842,14.2308215 204.660059,14.2308215 C209.892917,14.2308215 211.966916,20.4209097 211.966916,27.4405974 L199.171939,37.778683 Z M238.801267,46.9361847 C247.767323,46.9361847 255.20181,41.4799728 255.20181,30.1846572 C255.20181,18.8574338 247.767323,13.401222 238.801267,13.401222 C229.835212,13.401222 222.432632,18.8574338 222.432632,30.1846572 C222.432632,41.4799728 229.835212,46.9361847 238.801267,46.9361847 Z M241.066712,45.9151392 C236.56773,45.9151392 232.004933,41.6714189 229.611858,32.6415479 C228.877981,29.8336728 228.526997,27.3448744 228.526997,25.1432451 C228.526997,19.3041412 230.95198,15.6985743 234.65327,14.7094365 C235.291423,14.5498982 235.929577,14.4541752 236.56773,14.4541752 C241.066712,14.4541752 245.597601,18.7298031 248.022584,27.6958588 C248.756461,30.5037339 249.107445,32.9925322 249.107445,35.1622539 C249.107445,41.0651731 246.650554,44.67074 242.949265,45.6598778 C242.343019,45.8194162 241.704865,45.9151392 241.066712,45.9151392 Z M267.518172,45.7236931 L267.518172,26.5152749 L270.389862,19.9742023 C271.187554,18.1235574 273.197737,16.2410048 276.324689,16.2410048 C280.632224,16.2410048 284.269699,20.0699253 284.269699,27.0577054 L284.269699,45.7236931 L290.395972,45.7236931 L290.395972,27.0577054 C290.395972,17.4215886 285.546006,12.9226069 279.387825,12.9226069 C275.526997,12.9226069 271.953338,14.5179905 269.815524,19.3998642 L267.518172,24.568907 L267.518172,17.4854039 C267.518172,14.9008826 266.369495,13.688391 263.625436,13.688391 L258.36067,13.688391 L258.36067,14.4541752 L261.423806,16.7515275 L261.423806,45.7236931 L267.518172,45.7236931 Z M299.393935,8.39171758 C301.276488,8.39171758 302.839964,6.86014936 302.839964,4.97759674 C302.839964,3.06313646 301.308396,1.53156823 299.425843,1.53156823 C297.511383,1.53156823 295.979814,3.03122878 295.979814,4.94568907 C295.979814,6.82824168 297.511383,8.39171758 299.393935,8.39171758 Z M302.839964,45.7556008 L302.967594,17.2301426 C302.967594,14.6456212 301.818918,13.4331297 299.074859,13.4331297 L293.810093,13.4331297 L293.810093,14.1989138 L296.873229,16.4962661 L296.745599,45.7556008 L302.839964,45.7556008 Z" id="AnnaLeoni"></path>
            </g>
        </g>
    </g>
</svg>